<svg version="1.1" xmlns="http://www.w3.org/2000/svg" xmlns:xlink="http://www.w3.org/1999/xlink" preserveAspectRatio="xMidYMid meet">
    <symbol id="search" viewBox="0 0 48 48" fill="var(--icon-color,#fff4e3)">
        <path d="M31 28h-1.59l-.55-.55C30.82 25.18 32 22.23 32 19c0-7.18-5.82-13-13-13S6 11.82 6 19s5.82 13 13 13c3.23 0 6.18-1.18 8.45-3.13l.55.55V31l10 9.98L40.98 38 31 28zm-12 0c-4.97 0-9-4.03-9-9s4.03-9 9-9 9 4.03 9 9-4.03 9-9 9z"/>
    </symbol>
    <symbol id="arrow" viewBox="0 0 48 48" fill="var(--icon-color,#fff4e3)">
        <path d="M14.83 16.42L24 25.59l9.17-9.17L36 19.25l-12 12-12-12z"/>
    </symbol>
    <symbol id="close" viewBox="0 0 48 48" fill="var(--icon-color,#fff4e3)">
        <path d="M38 12.83L35.17 10 24 21.17 12.83 10 10 12.83 21.17 24 10 35.17 12.83 38 24 26.83 35.17 38 38 35.17 26.83 24z"/>
    </symbol>
    <symbol id="settings" viewBox="0 0 48 48" fill="var(--icon-color,#fff4e3)">
        <path d="M38.86 25.95c.08-.64.14-1.29.14-1.95s-.06-1.31-.14-1.95l4.23-3.31c.38-.3.49-.84.24-1.28l-4-6.93c-.25-.43-.77-.61-1.22-.43l-4.98 2.01c-1.03-.79-2.16-1.46-3.38-1.97L29 4.84c-.09-.47-.5-.84-1-.84h-8c-.5 0-.91.37-.99.84l-.75 5.3c-1.22.51-2.35 1.17-3.38 1.97L9.9 10.1c-.45-.17-.97 0-1.22.43l-4 6.93c-.25.43-.14.97.24 1.28l4.22 3.31C9.06 22.69 9 23.34 9 24s.06 1.31.14 1.95l-4.22 3.31c-.38.3-.49.84-.24 1.28l4 6.93c.25.43.77.61 1.22.43l4.98-2.01c1.03.79 2.16 1.46 3.38 1.97l.75 5.3c.08.47.49.84.99.84h8c.5 0 .91-.37.99-.84l.75-5.3c1.22-.51 2.35-1.17 3.38-1.97l4.98 2.01c.45.17.97 0 1.22-.43l4-6.93c.25-.43.14-.97-.24-1.28l-4.22-3.31zM24 31c-3.87 0-7-3.13-7-7s3.13-7 7-7 7 3.13 7 7-3.13 7-7 7z"/>
    </symbol>    
    <symbol id="nodes" viewBox="-1 -1 62.68613138686131 67.64963503649633" fill="var(--icon-color,#fff4e3)">
        <defs>
            <path d="M54.01 50.15C54.01 57.6 47.96 63.65 40.51 63.65C33.06 63.65 27.01 57.6 27.01 50.15C27.01 42.69 33.06 36.64 40.51 36.64C47.96 36.64 54.01 42.69 54.01 50.15Z" id="b3yUIYMCv"></path>
            <path d="M27.01 27.01C27.01 34.46 20.96 40.51 13.5 40.51C6.05 40.51 0 34.46 0 27.01C0 19.55 6.05 13.5 13.5 13.5C20.96 13.5 27.01 19.55 27.01 27.01Z" id="h20jCWxSQL"></path>
            <path d="M58.69 13.5C58.69 20.96 52.64 27.01 45.18 27.01C37.73 27.01 31.68 20.96 31.68 13.5C31.68 6.05 37.73 0 45.18 0C52.64 0 58.69 6.05 58.69 13.5Z" id="dn5LsghYN"></path>
        </defs>
        <g>
            <g><use xlink:href="#b3yUIYMCv"></use></g>
            <g><use xlink:href="#h20jCWxSQL"></use></g>
            <g><use xlink:href="#dn5LsghYN"></use></g>
        </g>
    </symbol>
    <symbol id="edges" viewBox="-1 -1 56.48062015503879 51.521039828016114" fill="var(--icon-color,#fff4e3)">
        <defs>
            <path d="M7.31 16.7L40.73 40.6L37.57 45.01L4.16 21.11L7.31 16.7Z" id="abkfGp0Wb"></path>
            <path d="M46.77 8.36L40.67 45.12L34.69 44.12L40.79 7.36L46.77 8.36Z" id="aAsBb1NFc"></path>
            <path d="M45.12 40.16C45.12 44.22 41.82 47.52 37.75 47.52C33.69 47.52 30.39 44.22 30.39 40.16C30.39 36.09 33.69 32.79 37.75 32.79C41.82 32.79 45.12 36.09 45.12 40.16Z" id="a1GdRCAbb"></path>
            <path d="M4.16 15.29L43.6 3.78L45.12 8.99L5.67 20.5L4.16 15.29Z" id="jlZKuomNu"></path>
            <path d="M52.48 7.36C52.48 11.43 49.18 14.73 45.12 14.73C41.05 14.73 37.75 11.43 37.75 7.36C37.75 3.3 41.05 0 45.12 0C49.18 0 52.48 3.3 52.48 7.36Z" id="a5RvkvRnPW"></path>
            <path d="M14.73 18.88C14.73 22.94 11.43 26.24 7.36 26.24C3.3 26.24 0 22.94 0 18.88C0 14.81 3.3 11.51 7.36 11.51C11.43 11.51 14.73 14.81 14.73 18.88Z" id="e1NB6KjznA"></path>
        </defs>
        <g>
            <g><use xlink:href="#abkfGp0Wb"></use></g>
            <g><use xlink:href="#aAsBb1NFc"></use></g>
            <g><use xlink:href="#a1GdRCAbb"></use></g>
            <g><use xlink:href="#jlZKuomNu"></use></g>
            <g><use xlink:href="#a5RvkvRnPW"></use></g>
            <g><use xlink:href="#e1NB6KjznA"></use></g>
        </g>
    </symbol>
    <symbol id="data" viewBox="-1 -1 58.06156283596442 44.2325581395349" fill="var(--icon-color,#fff4e3)">
            <defs>
            <path d="M0 0L38.76 0L38.76 8.53L0 8.53L0 0Z" id="a4DzIiG0VT"></path>
            <path d="M0 15.43L22.48 15.43L22.48 23.95L0 23.95L0 15.43Z" id="b1bgsydnfm"></path>
            <path d="M0 31.71L30.23 31.71L30.23 40.23L0 40.23L0 31.71Z" id="a1CeLgjvkN"></path>
            <path d="M43.33 0L53.41 0L53.41 8.53L43.33 8.53L43.33 0Z" id="b5kOcUDXw5"></path>
            <path d="M27.05 15.43L54.06 15.43L54.06 23.95L27.05 23.95L27.05 15.43Z" id="bonWjYIPR"></path>
            <path d="M34.03 31.71L54.06 31.71L54.06 40.23L34.03 40.23L34.03 31.71Z" id="b2xqC9pCtU"></path>
        </defs>
        <g>
            <g><use xlink:href="#a4DzIiG0VT"></use></g>
            <g><use xlink:href="#b1bgsydnfm"></use></g>
            <g><use xlink:href="#a1CeLgjvkN"></use></g>
            <g><use xlink:href="#b5kOcUDXw5"></use></g>
            <g><use xlink:href="#bonWjYIPR"></use></g>
            <g><use xlink:href="#b2xqC9pCtU"></use></g>
        </g>
    </symbol>
</svg>
